Coordinates
version=1
nRows=12
nColumns=24
inDegrees=yes

Units are S.I. units (second, meters, Newtons, ...)
If the header above contains a line with 'inDegrees', this indicates whether rotational values are in degrees (yes) or radians (no).

endheader
time	pelvis_tilt	pelvis_list	pelvis_rotation	pelvis_tx	pelvis_ty	pelvis_tz	hip_flexion_r	hip_adduction_r	hip_rotation_r	knee_angle_r	ankle_angle_r	subtalar_angle_r	mtp_angle_r	hip_flexion_l	hip_adduction_l	hip_rotation_l	knee_angle_l	ankle_angle_l	subtalar_angle_l	mtp_angle_l	lumbar_extension	lumbar_bending	lumbar_rotation
      0.00000000	     20.71327432	      0.81681406	      1.39910811	     -2.13732609	      0.97523535	      0.05146097	    -23.55555091	     -5.20654296	    -18.29931406	    -11.02699275	     -1.90577136	     -0.41831623	     23.84943808	    -26.60877161	     -4.40741281	    -19.56091461	     -7.28600756	     -6.73017027	     -2.37329342	     36.42973305	    -24.72624865	      3.19932746	      9.88916945
      0.00833300	     20.70104655	      0.81754977	      1.39807895	     -2.13738964	      0.97521261	      0.05147782	    -23.54723200	     -5.20660055	    -18.30321873	    -11.01199249	     -1.90386908	     -0.41754490	     23.84771922	    -26.59555326	     -4.40702933	    -19.56540446	     -7.27802935	     -6.73038334	     -2.37307484	     36.43060916	    -24.75228097	      3.20060309	      9.88947000
      0.01666700	     20.68811238	      0.81868871	      1.39763434	     -2.13745515	      0.97519027	      0.05150017	    -23.53941820	     -5.20610180	    -18.30602160	    -10.99441014	     -1.90244069	     -0.41521192	     23.84604155	    -26.57936400	     -4.40701666	    -19.56944509	     -7.27352640	     -6.73228759	     -2.37190160	     36.43182897	    -24.78035373	      3.20147965	      9.89007265
      0.02500000	     20.67396006	      0.82488866	      1.40811910	     -2.13754042	      0.97517693	      0.05152345	    -23.53770846	     -5.20349665	    -18.29596799	    -10.96200387	     -1.90581219	     -0.39796550	     23.83905505	    -26.54552293	     -4.41299900	    -19.57278327	     -7.29730136	     -6.74674034	     -2.36293466	     36.43969592	    -24.81048093	      3.20207746	      9.89801593
      0.03333300	     20.66185448	      0.82212523	      1.39895538	     -2.13759341	      0.97516419	      0.05156428	    -23.52817966	     -5.20273411	    -18.30351267	    -10.94671270	     -1.90499204	     -0.39592487	     23.83722467	    -26.53307448	     -4.41413760	    -19.57588871	     -7.29298628	     -6.74713820	     -2.36112718	     36.44176656	    -24.83519123	      3.20443592	      9.89681967
      0.04166700	     20.64621193	      0.81927165	      1.40381528	     -2.13767105	      0.97515725	      0.05160817	    -23.51677223	     -5.19467735	    -18.30125099	    -10.92735745	     -1.91291113	     -0.36919651	     23.82831367	    -26.49757223	     -4.42910508	    -19.58795148	     -7.32154292	     -6.75675093	     -2.34586570	     36.45821497	    -24.86848108	      3.20787403	      9.90070199
      0.05000000	     20.63292711	      0.81674379	      1.39610488	     -2.13770739	      0.97514639	      0.05166283	    -23.50589930	     -5.19302445	    -18.30932930	    -10.91426778	     -1.91141228	     -0.36701143	     23.82706615	    -26.48500749	     -4.43201897	    -19.59280144	     -7.31564777	     -6.75554091	     -2.34392902	     36.46084101	    -24.89572680	      3.20879966	      9.89935130
      0.05833300	     20.62101806	      0.80807505	      1.39910332	     -2.13778677	      0.97514425	      0.05172548	    -23.48855617	     -5.18090122	    -18.30925117	    -10.91569885	     -1.91436016	     -0.33834626	     23.82228852	    -26.44967890	     -4.45456937	    -19.61045397	     -7.35300462	     -6.75650024	     -2.32618520	     36.48262538	    -24.93725084	      3.21077558	      9.89927647
      0.06666700	     20.59891574	      0.78767328	      1.39395212	     -2.13776227	      0.97510473	      0.05177848	    -23.46631094	     -5.16421820	    -18.34264196	    -10.91212156	     -1.90014583	     -0.26315189	     23.80248825	    -26.41384242	     -4.48650611	    -19.69555354	     -7.38860281	     -6.72189469	     -2.23955213	     36.58941990	    -24.94871355	      3.24079336	      9.90058986
      0.07500000	     20.59261628	      0.78317721	      1.38528079	     -2.13782034	      0.97510607	      0.05187375	    -23.45175110	     -5.15993479	    -18.33780132	    -10.91869766	     -1.89802435	     -0.25732242	     23.80164744	    -26.39903296	     -4.49804559	    -19.68984271	     -7.40068566	     -6.73265556	     -2.22854188	     36.60049822	    -24.99348731	      3.23341728	      9.90409694
      0.08333300	     20.59578729	      0.76645346	      1.37611985	     -2.13783660	      0.97510239	      0.05196256	    -23.44509147	     -5.14505397	    -18.35112338	    -10.93422031	     -1.87860546	     -0.24219111	     23.79840259	    -26.38972011	     -4.52559675	    -19.75031355	     -7.43372494	     -6.72093497	     -2.18561169	     36.67013954	    -25.04273240	      3.24992455	      9.91425395
      0.09166700	     20.58921435	      0.76239839	      1.36889176	     -2.13787081	      0.97510739	      0.05206214	    -23.42778872	     -5.14113337	    -18.34292289	    -10.94793116	     -1.88150095	     -0.23648459	     23.79975119	    -26.37502627	     -4.53761071	    -19.74702575	     -7.44809081	     -6.72737918	     -2.17565191	     36.68165905	    -25.08669391	      3.25428342	      9.91448780
